<svg id="logo" xmlns="http://www.w3.org/2000/svg" viewBox="0 0 194.05 246.88"><defs><style>.cls-1{fill:#fff;}</style></defs><path class="cls-1" d="M128,4.56A97,97,0,0,0,50.66,160.18C68.38,183.53,128,251.44,128,251.44s59.62-67.91,77.34-91.26A97,97,0,0,0,128,4.56Zm.19,169.59a73.9,73.9,0,1,1,73.9-73.9A73.9,73.9,0,0,1,128.19,174.15Z" transform="translate(-30.98 -4.56)"/><path class="cls-1" d="M181.65,52.22s.85,5.16-1.62,8.68-8.93,12.95-11.18,15.73-17.29,20.5-33.58,32.74a66.94,66.94,0,0,0,6.13-27.55Z" transform="translate(-30.98 -4.56)"/><path class="cls-1" d="M105.25,110.39c-1.18-2.17-8.14-6.38-13.62-5.75-5,.57-18.17,7.1-22.26,13.93-1.7-.37-4.26-1.36-4.36-3.93s-5.43-3.59-4.9,1c.45,3.86,3,8.21,7.87,8.14,0,7.19,6.43,16,15.68,17,10.76,1.09,29.69-11.45,29.69-11.45l.28-14.22C110.84,114.18,106.43,112.57,105.25,110.39ZM93.36,130.88c-6.21,3.36-13.13,2.58-15.46-1.72s.82-10.51,7-13.87,13.13-2.59,15.46,1.71S99.57,127.52,93.36,130.88Z" transform="translate(-30.98 -4.56)"/><path class="cls-1" d="M117.65,101.65a8.88,8.88,0,0,1,16.58,4.41,9.13,9.13,0,0,1-.32,2.35,99.87,99.87,0,0,0,4.29-17.7l2.42-58.8s-6.16,3.34-7.73,8.24-15.22,49-15,54.54C117.88,95.77,117.79,98.26,117.65,101.65Z" transform="translate(-30.98 -4.56)"/><path class="cls-1" d="M151.45,145a21.48,21.48,0,0,0-1.13-6.47c-2.12-5.43-7.12-12.93-14.89-13-4.6-.07-6.31-.35-6.77-2.93s1.2-6,2.15-7.36a25.19,25.19,0,0,0,2.63-5.53,8.86,8.86,0,0,1-16.12.18c-.29,8-.53,17.76-.25,26.58,0,0-.13,27.76-.13,28.83h10.74c0-1.31-.12-21.7,0-22.92h0c.47-5,2.79-6.61,6-7,4.09-.48,7.15,2.68,8,9.69v20.21l9.86,3.34V145Z" transform="translate(-30.98 -4.56)"/><circle class="cls-1" cx="94.37" cy="101.5" r="5.8"/></svg>